<?xml version="1.0" encoding="UTF-8" standalone="no"?>
<!-- Uploaded to: SVG Repo, www.svgrepo.com, Generator: SVG Repo Mixer Tools -->

<svg
   width="800px"
   height="800px"
   viewBox="0 0 32 32"
   version="1.1"
   id="svg6"
   sodipodi:docname="kartoza-erp.svg"
   xml:space="preserve"
   inkscape:version="1.3.2 (091e20ef0f, 2023-11-25)"
   xmlns:inkscape="http://www.inkscape.org/namespaces/inkscape"
   xmlns:sodipodi="http://sodipodi.sourceforge.net/DTD/sodipodi-0.dtd"
   xmlns="http://www.w3.org/2000/svg"
   xmlns:svg="http://www.w3.org/2000/svg"
   xmlns:rdf="http://www.w3.org/1999/02/22-rdf-syntax-ns#"
   xmlns:cc="http://creativecommons.org/ns#"
   xmlns:dc="http://purl.org/dc/elements/1.1/"><defs
     id="defs6"><linearGradient
       id="IconifyId17ecdb2904d178eab20883"
       gradientUnits="userSpaceOnUse"
       x1="29.113001"
       y1="29.156"
       x2="29.113001"
       y2="4.9699998"
       gradientTransform="matrix(1,0,0,-1,0,128)"><stop
         offset="0"
         stop-color="#ffa000"
         id="stop19" /><stop
         offset=".341"
         stop-color="#ff9300"
         id="stop20" /><stop
         offset=".972"
         stop-color="#ff7100"
         id="stop21" /><stop
         offset="1"
         stop-color="#ff6f00"
         id="stop22" /></linearGradient><linearGradient
       id="IconifyId17ecdb2904d178eab20884"
       gradientUnits="userSpaceOnUse"
       x1="98.888"
       y1="29.434999"
       x2="98.888"
       y2="4.8070002"
       gradientTransform="matrix(1,0,0,-1,0,128)"><stop
         offset="0"
         stop-color="#ffa000"
         id="stop23" /><stop
         offset=".341"
         stop-color="#ff9300"
         id="stop24" /><stop
         offset=".972"
         stop-color="#ff7100"
         id="stop25" /><stop
         offset="1"
         stop-color="#ff6f00"
         id="stop26" /></linearGradient><linearGradient
       id="IconifyId17ecdb2904d178eab20885"
       gradientUnits="userSpaceOnUse"
       x1="79.569"
       y1="22.712999"
       x2="76.945999"
       y2="11.668"
       gradientTransform="matrix(1,0,0,-1,0,128)"><stop
         offset=".002"
         stop-color="#212121"
         stop-opacity=".2"
         id="stop38" /><stop
         offset="1"
         stop-color="#212121"
         stop-opacity=".6"
         id="stop39" /></linearGradient><linearGradient
       id="IconifyId17ecdb2904d178eab20886"
       gradientUnits="userSpaceOnUse"
       x1="81.839996"
       y1="17.098"
       x2="79.869003"
       y2="10.486"
       gradientTransform="matrix(1,0,0,-1,0,128)"><stop
         offset="0"
         stop-color="#ef5350"
         id="stop40" /><stop
         offset="1"
         stop-color="#e53935"
         id="stop41" /></linearGradient><linearGradient
       id="IconifyId17ecdb2904d178eab20887"
       gradientUnits="userSpaceOnUse"
       x1="58.404999"
       y1="19.113001"
       x2="60.268002"
       y2="24.969"
       gradientTransform="matrix(1,0,0,-1,0,128)"><stop
         offset="0"
         stop-color="#212121"
         id="stop42" /><stop
         offset="1"
         stop-color="#424242"
         id="stop43" /></linearGradient><linearGradient
       id="IconifyId17ecdb2904d178eab20888"
       gradientUnits="userSpaceOnUse"
       x1="-117.44"
       y1="-972.31201"
       x2="-73.995003"
       y2="-972.31201"
       gradientTransform="matrix(0.9612,0.2758,-0.3192,1.1123,-136.555,1216.41)"><stop
         offset=".01"
         stop-color="#bdbdbd"
         id="stop44" /><stop
         offset=".987"
         stop-color="#f8f8f7"
         id="stop45" /></linearGradient></defs><sodipodi:namedview
     id="namedview6"
     pagecolor="#ffffff"
     bordercolor="#000000"
     borderopacity="0.25"
     inkscape:showpageshadow="2"
     inkscape:pageopacity="0.0"
     inkscape:pagecheckerboard="0"
     inkscape:deskcolor="#d1d1d1"
     inkscape:zoom="0.1221875"
     inkscape:cx="-499.23274"
     inkscape:cy="491.04859"
     inkscape:window-width="1920"
     inkscape:window-height="993"
     inkscape:window-x="1920"
     inkscape:window-y="0"
     inkscape:window-maximized="1"
     inkscape:current-layer="svg6"
     showgrid="false" /><title
     id="title1">file_type_nix</title><metadata
     id="metadata11"><rdf:RDF><cc:Work
         rdf:about=""><dc:title>file_type_nix</dc:title></cc:Work></rdf:RDF></metadata><style
     type="text/css"
     id="style1">
	.st0{fill:#76C2AF;}
	.st1{opacity:0.2;}
	.st2{fill:#231F20;}
	.st3{fill:#4F5D73;}
	.st4{fill:#FFFFFF;}
</style><g
     id="g74"
     transform="matrix(0.05866346,0,0,0.05898312,0.85933219,0.45007659)"><path
       style="fill:#d5f4fa"
       d="M 454.873,148.179 268.693,27.042 c -7.719,-5.021 -17.667,-5.021 -25.384,0 L 57.129,148.179 c -6.6,4.295 -10.58,11.633 -10.58,19.507 v 297.769 c 0,12.853 10.42,23.273 23.273,23.273 h 372.36 c 12.853,0 23.273,-10.42 23.273,-23.273 V 167.686 c 0,-7.874 -3.982,-15.213 -10.582,-19.507 z"
       id="path1" /><path
       style="fill:#c0fcff"
       d="M 454.873,148.179 268.693,27.042 C 264.834,24.532 260.417,23.277 256,23.277 v 465.45 h 186.18 c 12.853,0 23.273,-10.42 23.273,-23.273 V 167.686 c 0.002,-7.874 -3.98,-15.213 -10.58,-19.507 z"
       id="path2" /><path
       style="fill:#54a2cc;fill-opacity:1"
       d="m 488.705,221.244 c -4.352,0 -8.752,-1.218 -12.671,-3.769 L 256.002,74.313 35.968,217.477 c -10.769,7.01 -25.189,3.961 -32.2,-6.814 -7.01,-10.774 -3.958,-25.19 6.814,-32.198 L 243.308,27.042 c 7.719,-5.019 17.667,-5.019 25.384,0 l 232.725,151.422 c 10.772,7.01 13.824,21.426 6.814,32.198 -4.457,6.853 -11.917,10.582 -19.526,10.582 z"
       id="path3" /><path
       style="fill:#eeb248;fill-opacity:1"
       d="m 488.705,221.244 c 7.609,0 15.068,-3.728 19.529,-10.583 7.01,-10.774 3.958,-25.19 -6.814,-32.198 L 268.695,27.041 c -3.859,-2.51 -8.276,-3.765 -12.693,-3.765 v 51.038 l 220.032,143.162 c 3.919,2.55 8.319,3.768 12.671,3.768 z"
       id="path4" /><path
       style="fill:#8a8b8b;fill-opacity:1"
       d="M 488.727,488.727 H 23.277 c -12.853,0 -23.273,-10.42 -23.273,-23.273 0,-12.853 10.42,-23.273 23.273,-23.273 h 465.45 c 12.853,0 23.273,10.42 23.273,23.273 0,12.853 -10.42,23.273 -23.273,23.273 z"
       id="path5" /><path
       style="fill:#6b6c6c;fill-opacity:1"
       d="M 488.727,442.182 H 256.002 v 46.545 h 232.725 c 12.853,0 23.273,-10.42 23.273,-23.273 0,-12.854 -10.42,-23.272 -23.273,-23.272 z"
       id="path6" /></g><g
     id="Image"
     transform="matrix(0.03860938,0,0,0.03692551,6.5133217,7.4241637)"
     style="stroke:#fefefe;stroke-width:5.04316;stroke-dasharray:none;stroke-opacity:1"><path
       d="m 296.244,207.294 c 5.452,-21.967 8.499,-43.542 6.768,-59.765 -4.394,-41.187 -35.506,-50.625 -53.446,-50.614 -18.676,0.011 -45.396,6.916 -53.085,50.478 -6.646,37.665 12.51,90.626 40.866,139.804 0,0 -3.157,7.275 -11.395,18.945 -11.929,16.898 -21.518,26.187 -21.518,26.187 C 167.723,269.003 138.895,213.624 139.184,172.614 139.929,67.179 199.042,37.52 249.565,37.842 c 50.523,0.322 110.93,33.707 110.93,133.852 0,10.745 -3.877,29.011 -6.59,41.093 -3.865,-0.312 -14.338,-2.091 -25.673,-3.157 -17.524,-1.653 -31.988,-2.336 -31.988,-2.336 z"
       fill="#54a2cc"
       id="path1-3"
       style="stroke:#fefefe;stroke-width:5.04316;stroke-dasharray:none;stroke-opacity:1" /><path
       d="m 156.908,283.159 c -21.75,6.262 -41.957,14.411 -55.141,24.021 -33.473,24.398 -26.09,56.063 -17.11,71.594 9.348,16.168 28.688,35.855 70.258,20.732 35.942,-13.075 72.229,-56.146 100.64,-105.292 0,0 7.88,-0.903 22.105,0.396 20.598,1.88 33.437,5.543 33.437,5.543 C 274.611,363.606 241.065,416.262 205.405,436.517 113.723,488.589 58.481,452.225 33.498,408.31 8.517,364.395 7.226,295.389 93.953,245.316 c 9.305,-5.372 27.063,-11.146 38.882,-14.838 1.661,3.503 5.358,13.46 10.102,23.812 7.331,16.002 13.971,28.869 13.971,28.869 z"
       fill="#eeb248"
       id="path2-6"
       style="stroke:#fefefe;stroke-width:5.04316;stroke-dasharray:none;stroke-opacity:1" /><path
       d="m 295.434,363.963 c 16.297,15.706 33.459,29.131 48.374,35.743 37.866,16.789 61.597,-5.438 70.557,-20.979 9.328,-16.178 16.708,-42.772 -17.173,-71.21 -29.297,-24.59 -84.74,-34.481 -141.507,-34.511 0,0 -4.721,-6.374 -10.708,-19.341 -8.672,-18.779 -11.921,-31.729 -11.921,-31.729 73.196,-0.129 135.571,2.594 170.942,23.35 90.938,53.362 87.065,119.386 61.525,162.979 -25.538,43.591 -84.656,79.213 -171.385,29.142 -9.304,-5.374 -23.184,-17.864 -32.291,-26.255 2.203,-3.19 8.979,-11.37 15.571,-20.653 10.194,-14.352 18.016,-26.536 18.016,-26.536 z"
       fill="#8a8b8b"
       id="path3-7"
       style="stroke:#fefefe;stroke-width:5.04316;stroke-dasharray:none;stroke-opacity:1" /></g></svg>
