<?xml version="1.0" encoding="UTF-8" standalone="no"?>
<!-- Uploaded to: SVG Repo, www.svgrepo.com, Generator: SVG Repo Mixer Tools -->

<svg
   width="800px"
   height="800px"
   viewBox="0 0 32 32"
   version="1.1"
   id="svg6"
   sodipodi:docname="kartoza-training.svg"
   xml:space="preserve"
   inkscape:version="1.3.2 (091e20ef0f, 2023-11-25)"
   xmlns:inkscape="http://www.inkscape.org/namespaces/inkscape"
   xmlns:sodipodi="http://sodipodi.sourceforge.net/DTD/sodipodi-0.dtd"
   xmlns="http://www.w3.org/2000/svg"
   xmlns:svg="http://www.w3.org/2000/svg"
   xmlns:rdf="http://www.w3.org/1999/02/22-rdf-syntax-ns#"
   xmlns:cc="http://creativecommons.org/ns#"
   xmlns:dc="http://purl.org/dc/elements/1.1/"><defs
     id="defs6" /><sodipodi:namedview
     id="namedview6"
     pagecolor="#ffffff"
     bordercolor="#000000"
     borderopacity="0.25"
     inkscape:showpageshadow="2"
     inkscape:pageopacity="0.0"
     inkscape:pagecheckerboard="0"
     inkscape:deskcolor="#d1d1d1"
     inkscape:zoom="0.17279922"
     inkscape:cx="-1278.941"
     inkscape:cy="-115.74126"
     inkscape:window-width="1920"
     inkscape:window-height="993"
     inkscape:window-x="1920"
     inkscape:window-y="0"
     inkscape:window-maximized="1"
     inkscape:current-layer="svg6" /><title
     id="title1">file_type_nix</title><metadata
     id="metadata11"><rdf:RDF><cc:Work
         rdf:about=""><dc:title>file_type_nix</dc:title></cc:Work></rdf:RDF></metadata><style
     type="text/css"
     id="style1">
	.st0{fill:#76C2AF;}
	.st1{opacity:0.2;}
	.st2{fill:#231F20;}
	.st3{fill:#4F5D73;}
	.st4{fill:#FFFFFF;}
</style><g
     id="g15"
     transform="matrix(0.25,0,0,0.25,0.77749395,0.67096463)"><path
       fill="url(#IconifyId17ecdb2904d178eab20874)"
       d="M 6.36,10.9 H 121.65 V 88.42 H 6.36 Z"
       id="path2-9" /><path
       d="M 119.29,13.26 V 86.07 H 8.71 V 13.26 H 119.29 M 124,8.55 H 4 v 82.23 h 120 z"
       fill="url(#IconifyId17ecdb2904d178eab20875)"
       id="path4-73" /><path
       d="m 98.9,79.85 c -1.25,-2.27 0.34,-4.58 3.06,-7.44 4.31,-4.54 9,-15.07 4.64,-25.76 0.03,-0.06 -0.86,-1.86 -0.83,-1.92 l -1.79,-0.09 c -0.57,-0.08 -20.26,-0.12 -39.97,-0.12 -19.71,0 -39.4,0.04 -39.97,0.12 0,0 -2.65,1.95 -2.63,2.01 -4.35,10.69 0.33,21.21 4.64,25.76 2.71,2.86 4.3,5.17 3.06,7.44 -1.21,2.21 -4.81,2.53 -4.81,2.53 0,0 0.83,2.26 2.83,3.48 1.85,1.13 4.13,1.39 5.7,1.43 0,0 6.15,8.51 22.23,8.51 h 17.9 c 16.08,0 22.23,-8.51 22.23,-8.51 1.57,-0.04 3.85,-0.3 5.7,-1.43 2,-1.22 2.83,-3.48 2.83,-3.48 0,0 -3.61,-0.32 -4.82,-2.53 z"
       fill="#543930"
       id="path5-6"
       style="fill:#1c1303;fill-opacity:1" /><path
       d="m 63.99,95.79 v -9.44 l 28.57,-2.26 2.6,3.2 c 0,0 -6.15,8.51 -22.23,8.51 z"
       fill="url(#IconifyId17ecdb2904d178eab20876)"
       id="path6-1" /><path
       d="m 95.1,83.16 c -4.28,-6.5 5.21,-8.93 5.21,-8.93 l 0.01,0.01 c -1.65,2.05 -2.4,3.84 -1.43,5.61 1.21,2.21 4.81,2.53 4.81,2.53 0,0 -4.91,4.36 -8.6,0.78 z"
       fill="url(#IconifyId17ecdb2904d178eab20877)"
       id="path8-29" /><path
       d="m 106.62,46.65 c 4.25,10.35 -0.22,21.01 -4.41,25.51 -0.57,0.62 -3.01,3.01 -3.57,4.92 0,0 -9.54,-13.31 -12.39,-21.13 -0.57,-1.58 -1.1,-3.2 -1.17,-4.88 -0.05,-1.26 0.14,-2.76 0.87,-3.83 0.89,-1.31 20.16,-1.7 20.16,-1.7 0,0.01 0.51,1.11 0.51,1.11 z"
       fill="url(#IconifyId17ecdb2904d178eab20878)"
       id="path10-3" /><path
       d="m 21.4,46.65 c -4.24,10.35 0.23,21.01 4.41,25.5 0.58,0.62 3.01,3.01 3.57,4.92 0,0 9.54,-13.31 12.39,-21.13 0.58,-1.58 1.1,-3.2 1.17,-4.88 0.05,-1.26 -0.14,-2.76 -0.87,-3.83 -0.89,-1.31 -1.93,-0.96 -3.44,-0.96 -2.88,0 -15.49,-0.74 -16.47,-0.74 0.01,0.02 -0.76,1.12 -0.76,1.12 z"
       fill="url(#IconifyId17ecdb2904d178eab20879)"
       id="path12" /><path
       d="m 64.03,95.79 v -9.44 l -28.57,-2.26 -2.6,3.2 c 0,0 6.15,8.51 22.23,8.51 z"
       fill="url(#IconifyId17ecdb2904d178eab20880)"
       id="path14" /><path
       d="m 32.92,83.16 c 4.28,-6.5 -5.21,-8.93 -5.21,-8.93 l -0.01,0.01 c 1.65,2.05 2.4,3.84 1.43,5.61 -1.21,2.21 -4.81,2.53 -4.81,2.53 0,0 4.91,4.36 8.6,0.78 z"
       fill="url(#IconifyId17ecdb2904d178eab20881)"
       id="path16" /><path
       d="M 114.5,120.75 C 114.5,105.28 89.16,97.19 64.14,97.19 H 64 c -25.14,0.03 -50.5,7.32 -50.5,23.56 V 124 h 101 z"
       fill="url(#IconifyId17ecdb2904d178eab20882)"
       id="path18" /><g
       id="g19"><path
         fill="#e59600"
         d="m 64,92.33 h -9.08 v 9.98 l 9.06,2.38 9.1,-2.38 v -9.98 z"
         id="path19" /></g><g
       id="g31"><linearGradient
         id="IconifyId17ecdb2904d178eab20883"
         gradientUnits="userSpaceOnUse"
         x1="29.113001"
         y1="29.156"
         x2="29.113001"
         y2="4.9699998"
         gradientTransform="matrix(1,0,0,-1,0,128)"><stop
           offset="0"
           stop-color="#ffa000"
           id="stop19" /><stop
           offset=".341"
           stop-color="#ff9300"
           id="stop20" /><stop
           offset=".972"
           stop-color="#ff7100"
           id="stop21" /><stop
           offset="1"
           stop-color="#ff6f00"
           id="stop22" /></linearGradient><path
         d="M 12,120.75 V 124 H 44.89 L 46.22,96.96 C 27.52,99.72 12,107.15 12,120.75 Z"
         fill="url(#IconifyId17ecdb2904d178eab20883)"
         id="path22"
         style="fill:url(#IconifyId17ecdb2904d178eab20883)" /><linearGradient
         id="IconifyId17ecdb2904d178eab20884"
         gradientUnits="userSpaceOnUse"
         x1="98.888"
         y1="29.434999"
         x2="98.888"
         y2="4.8070002"
         gradientTransform="matrix(1,0,0,-1,0,128)"><stop
           offset="0"
           stop-color="#ffa000"
           id="stop23" /><stop
           offset=".341"
           stop-color="#ff9300"
           id="stop24" /><stop
           offset=".972"
           stop-color="#ff7100"
           id="stop25" /><stop
           offset="1"
           stop-color="#ff6f00"
           id="stop26" /></linearGradient><path
         d="M 81.78,96.96 83.1,124 H 116 v -3.25 c 0,-13.6 -15.52,-21.03 -34.22,-23.79 z"
         fill="url(#IconifyId17ecdb2904d178eab20884)"
         id="path26"
         style="fill:url(#IconifyId17ecdb2904d178eab20884)" /><g
         id="g28"><path
           fill="#66c0e8"
           d="m 54.03,92.12 9.99,12.82 -16.24,6.64 -2.41,-14.54 z"
           id="path27" /><path
           fill="#66c0e8"
           d="m 73.97,92.12 -9.99,12.82 16.24,6.64 2.41,-14.54 z"
           id="path28" /></g><g
         id="g29"><path
           d="m 48.88,95 c 0,0 -1.14,2.72 -1.94,6 -1.59,6.52 -1.69,15.8 -1.69,15.8 0,0 -6.89,-2.34 -9.04,-8.05 -2.54,-6.75 1.75,-10.46 1.75,-10.46 0,0 0.9,-0.38 4.68,-2.46 C 46.42,93.75 48.88,95 48.88,95 Z"
           fill="#af5214"
           id="path29" /></g><g
         id="g30"><path
           d="m 79.12,95 c 0,0 1.14,2.72 1.94,6 1.59,6.52 1.69,15.8 1.69,15.8 0,0 6.89,-2.34 9.04,-8.05 2.54,-6.75 -1.75,-10.46 -1.75,-10.46 0,0 -0.9,-0.38 -4.68,-2.46 C 81.58,93.75 79.12,95 79.12,95 Z"
           fill="#af5214"
           id="path30" /></g></g><g
       id="g32"><path
         d="M 91.12,50.43 H 36.47 c -5.89,0 -10.71,5.14 -10.71,11.41 0,6.27 4.82,11.41 10.71,11.41 h 54.65 c 5.89,0 10.71,-5.14 10.71,-11.41 0,-6.27 -4.82,-11.41 -10.71,-11.41 z"
         fill="#e59600"
         id="path31"
         style="fill:#352300;fill-opacity:1" /></g><g
       id="g33"><path
         d="m 63.79,11.07 c -17.4,0 -33.52,18.61 -33.52,45.4 0,26.64 16.61,39.81 33.52,39.81 16.91,0 33.52,-13.18 33.52,-39.82 0,-26.78 -16.11,-45.39 -33.52,-45.39 z"
         fill="#ffca28"
         id="path32"
         style="fill:#3c3527;fill-opacity:1" /></g><g
       fill="#404040"
       id="g34"><ellipse
         cx="47.98"
         cy="58.810001"
         rx="4.9299998"
         ry="5.0999999"
         id="ellipse33" /><ellipse
         cx="79.129997"
         cy="58.810001"
         rx="4.9299998"
         ry="5.0999999"
         id="ellipse34" /></g><g
       fill="#6d4c41"
       id="g35"><path
         d="m 55.37,49.82 c -0.93,-1.23 -3.07,-3.01 -7.23,-3.01 -4.16,0 -6.31,1.79 -7.23,3.01 -0.41,0.54 -0.31,1.17 -0.02,1.55 0.26,0.35 1.04,0.68 1.9,0.39 0.86,-0.29 2.54,-1.16 5.35,-1.18 2.81,0.02 4.49,0.89 5.35,1.18 0.86,0.29 1.64,-0.03 1.9,-0.39 0.28,-0.38 0.39,-1.01 -0.02,-1.55 z"
         id="path34" /><path
         d="m 86.36,49.82 c -0.93,-1.23 -3.07,-3.01 -7.23,-3.01 -4.16,0 -6.31,1.79 -7.23,3.01 -0.41,0.54 -0.31,1.17 -0.02,1.55 0.26,0.35 1.04,0.68 1.9,0.39 0.86,-0.29 2.54,-1.16 5.35,-1.18 2.81,0.02 4.49,0.89 5.35,1.18 0.86,0.29 1.64,-0.03 1.9,-0.39 0.29,-0.38 0.39,-1.01 -0.02,-1.55 z"
         id="path35" /></g><path
       d="m 67.65,68.06 c -0.11,-0.04 -0.21,-0.07 -0.32,-0.08 h -7.08 c -0.11,0.01 -0.22,0.04 -0.32,0.08 -0.64,0.26 -0.99,0.92 -0.69,1.63 0.3,0.71 1.71,2.69 4.55,2.69 2.84,0 4.25,-1.99 4.55,-2.69 0.31,-0.71 -0.05,-1.37 -0.69,-1.63 z"
       fill="#e59600"
       id="path36" /><path
       d="m 72.32,76.14 c -3.18,1.89 -13.63,1.89 -16.81,0 -1.83,-1.09 -3.7,0.58 -2.94,2.24 0.75,1.63 6.44,5.42 11.37,5.42 4.93,0 10.55,-3.79 11.3,-5.42 0.76,-1.66 -1.09,-3.33 -2.92,-2.24 z"
       fill="#795548"
       id="path37"
       style="fill:#be0303;fill-opacity:1" /><path
       d="m 93.83,52.93 c -0.07,-1.19 -0.12,-1.31 -1.69,-1.81 -1.23,-0.39 -7.95,-0.94 -13.01,-0.66 -0.36,0.02 -0.71,0.04 -1.04,0.07 -4.59,0.39 -10.1,2.24 -14.24,2.34 -1.76,0.04 -9.01,-1.86 -14.14,-2.26 -0.33,-0.02 -0.66,-0.05 -1,-0.06 -5.07,-0.26 -11.82,0.33 -13.05,0.73 -1.57,0.51 -1.62,0.63 -1.68,1.82 -0.07,1.19 0.13,2.2 1.06,2.51 1.27,0.42 1.28,2 2.13,6.54 0.77,4.14 2.62,7.41 10.57,7.98 0.34,0.02 0.66,0.04 0.98,0.04 7.03,0.1 9.45,-4.53 10.25,-6.07 1.49,-2.86 1.02,-6.8 4.96,-6.81 3.93,-0.01 3.56,3.86 5.07,6.71 0.81,1.53 3.17,6.18 10.14,6.08 0.34,0 0.69,-0.02 1.05,-0.05 7.94,-0.62 9.78,-3.9 10.52,-8.04 0.82,-4.55 0.83,-6.14 2.09,-6.56 0.91,-0.3 1.11,-1.31 1.03,-2.5 z M 53.28,68.17 c -1.22,0.57 -2.85,0.86 -4.57,0.86 -3.59,-0.01 -7.57,-1.27 -9.01,-3.81 -2.04,-3.62 -2.57,-10.94 0.03,-12.47 1.14,-0.67 4.99,-1.13 8.97,-0.96 4.13,0.18 8.4,1.04 9.94,3.06 2.55,3.33 -1.5,11.5 -5.36,13.32 z m 34.9,-3.1 c -1.43,2.56 -5.44,3.85 -9.05,3.86 -1.7,0.01 -3.31,-0.27 -4.51,-0.83 -3.87,-1.8 -7.97,-9.94 -5.45,-13.29 1.53,-2.04 5.82,-2.92 9.96,-3.12 3.97,-0.19 7.81,0.25 8.94,0.91 2.61,1.52 2.13,8.84 0.11,12.47 z"
       fill="#212121"
       stroke="#212121"
       stroke-width="0.55"
       stroke-miterlimit="10"
       id="path38" /><g
       id="g45"><linearGradient
         id="IconifyId17ecdb2904d178eab20885"
         gradientUnits="userSpaceOnUse"
         x1="79.569"
         y1="22.712999"
         x2="76.945999"
         y2="11.668"
         gradientTransform="matrix(1,0,0,-1,0,128)"><stop
           offset=".002"
           stop-color="#212121"
           stop-opacity=".2"
           id="stop38" /><stop
           offset="1"
           stop-color="#212121"
           stop-opacity=".6"
           id="stop39" /></linearGradient><path
         d="m 101.67,121.61 0.57,-2.2 0.01,-0.05 1.93,-7.6 -6.9,-1.98 -34.92,-10.03 c -0.05,-0.01 -0.09,-0.01 -0.13,-0.03 a 6.177,6.177 0 0 0 -7.51,4.27 L 48.97,124 h 52.02 z"
         opacity="0.67"
         fill="url(#IconifyId17ecdb2904d178eab20885)"
         id="path39"
         style="fill:url(#IconifyId17ecdb2904d178eab20885)" /><path
         d="m 105.75,111.88 c 0.29,-1.01 -0.29,-2.06 -1.3,-2.34 L 65.76,98.44 a 6.19,6.19 0 0 0 -7.65,4.24 L 52,124 h 50.28 z"
         fill="#424242"
         id="path40" /><linearGradient
         id="IconifyId17ecdb2904d178eab20886"
         gradientUnits="userSpaceOnUse"
         x1="81.839996"
         y1="17.098"
         x2="79.869003"
         y2="10.486"
         gradientTransform="matrix(1,0,0,-1,0,128)"><stop
           offset="0"
           stop-color="#ef5350"
           id="stop40" /><stop
           offset="1"
           stop-color="#e53935"
           id="stop41" /></linearGradient><path
         d="m 105.08,120.31 c 0.35,-1.22 -0.38,-2.5 -1.62,-2.85 l -41.52,-11.9 c -4.53,-1.3 -5.32,2.35 -6.59,6.78 L 52,124 h 52.02 z"
         fill="url(#IconifyId17ecdb2904d178eab20886)"
         id="path41"
         style="fill:url(#IconifyId17ecdb2904d178eab20886)" /><linearGradient
         id="IconifyId17ecdb2904d178eab20887"
         gradientUnits="userSpaceOnUse"
         x1="58.404999"
         y1="19.113001"
         x2="60.268002"
         y2="24.969"
         gradientTransform="matrix(1,0,0,-1,0,128)"><stop
           offset="0"
           stop-color="#212121"
           id="stop42" /><stop
           offset="1"
           stop-color="#424242"
           id="stop43" /></linearGradient><path
         d="m 63.26,98.24 a 6.172,6.172 0 0 0 -5.14,4.42 L 52,124 h 3.87 z"
         fill="url(#IconifyId17ecdb2904d178eab20887)"
         id="path43"
         style="fill:url(#IconifyId17ecdb2904d178eab20887)" /><path
         d="m 64.33,101.57 c 0.18,0 0.38,0.02 0.59,0.07 l 37.25,10.7 -0.31,1.08 c -11.79,-3.29 -34.29,-9.62 -38.94,-11.16 0.24,-0.33 0.71,-0.69 1.41,-0.69 m 0,-3.33 c -4.52,0 -6.78,5.57 -3.12,6.94 4.03,1.5 42.93,12.32 42.93,12.32 l 1.58,-5.52 c 0.31,-1.06 -0.19,-2.14 -1.11,-2.4 L 65.77,98.42 c -0.5,-0.12 -0.98,-0.18 -1.44,-0.18 z"
         fill="#424242"
         opacity="0.2"
         id="path44" /><linearGradient
         id="IconifyId17ecdb2904d178eab20888"
         gradientUnits="userSpaceOnUse"
         x1="-117.44"
         y1="-972.31201"
         x2="-73.995003"
         y2="-972.31201"
         gradientTransform="matrix(0.9612,0.2758,-0.3192,1.1123,-136.555,1216.41)"><stop
           offset=".01"
           stop-color="#bdbdbd"
           id="stop44" /><stop
           offset=".987"
           stop-color="#f8f8f7"
           id="stop45" /></linearGradient><path
         d="M 103.37,112.12 63.57,100.7 c -1.08,-0.31 -2.26,0.46 -2.62,1.71 l -0.06,0.22 c -0.36,1.25 0.23,2.53 1.31,2.84 l 39.8,11.42 c 0,0 -0.34,-0.83 0.07,-2.3 0.41,-1.48 1.3,-2.47 1.3,-2.47 z"
         fill="url(#IconifyId17ecdb2904d178eab20888)"
         id="path45"
         style="fill:url(#IconifyId17ecdb2904d178eab20888)" /></g><g
       id="g57"><path
         d="M 104.07,25.11 C 101.63,21.42 96.16,16.47 91.25,16.14 90.46,11.42 85.41,7.42 80.52,5.87 67.29,1.68 58.68,6.38 54.06,8.9 53.1,9.42 46.89,12.87 42.55,10.4 39.83,8.85 39.88,4.66 39.88,4.66 c 0,0 -8.52,3.25 -5.61,12.3 -2.93,0.12 -6.77,1.36 -8.8,5.47 -2.42,4.9 -1.56,8.99 -0.86,10.95 -2.52,2.14 -5.69,6.69 -3.52,12.6 1.64,4.45 8.17,6.5 8.17,6.5 -0.46,8.01 1.03,12.94 1.82,14.93 0.14,0.35 0.63,0.32 0.72,-0.04 0.99,-3.97 4.37,-17.8 4.03,-20.21 0,0 11.35,-2.25 22.17,-10.22 2.2,-1.62 4.59,-3 7.13,-4.01 13.59,-5.41 16.43,3.82 16.43,3.82 0,0 9.42,-1.81 12.26,11.27 1.07,4.9 1.79,12.75 2.4,18.24 0.04,0.39 0.57,0.47 0.72,0.11 0.95,-2.18 2.85,-6.5 3.3,-10.91 0.16,-1.55 4.34,-3.6 6.14,-10.26 2.41,-8.88 -0.54,-17.42 -2.31,-20.09 z"
         fill="#543930"
         id="path46"
         style="fill:#060503;fill-opacity:1" /><radialGradient
         id="IconifyId17ecdb2904d178eab20889"
         cx="82.018997"
         cy="84.945999"
         r="35.632999"
         gradientTransform="matrix(0.3076,0.9515,0.706,-0.2282,-3.184,-15.605)"
         gradientUnits="userSpaceOnUse"><stop
           offset="0.699"
           stop-color="#6d4c41"
           stop-opacity="0"
           id="stop46"
           style="stop-color:#dc9415;stop-opacity:1;" /><stop
           offset="1"
           stop-color="#6d4c41"
           id="stop47"
           style="stop-color:#eeb248;stop-opacity:1;" /></radialGradient><path
         d="m 100.22,55.5 c 0.16,-1.55 4.34,-3.6 6.14,-10.26 0.19,-0.71 0.35,-1.43 0.5,-2.15 1.46,-8.09 -1.16,-15.52 -2.79,-17.98 -2.26,-3.41 -7.1,-7.89 -11.69,-8.81 -0.4,-0.05 -0.79,-0.1 -1.16,-0.12 0,0 0.33,2.15 -0.54,3.86 -1.12,2.22 -3.41,2.75 -3.41,2.75 11.97,11.98 11.12,22 12.95,32.71 z"
         fill="url(#IconifyId17ecdb2904d178eab20889)"
         id="path47"
         style="fill:#0e0e0e;fill-opacity:1" /><radialGradient
         id="IconifyId17ecdb2904d178eab20890"
         cx="47.279999"
         cy="123.8"
         r="9.3430004"
         gradientTransform="matrix(0.8813,0.4726,0.5603,-1.045,-63.752,111.228)"
         gradientUnits="userSpaceOnUse"><stop
           offset=".58"
           stop-color="#6d4c41"
           id="stop48" /><stop
           offset="1"
           stop-color="#6d4c41"
           stop-opacity="0"
           id="stop49" /></radialGradient><path
         d="m 56.95,7.39 c -1.1,0.53 -2.06,1.06 -2.9,1.51 -0.96,0.52 -7.17,3.97 -11.51,1.5 -2.67,-1.52 -2.67,-5.58 -2.67,-5.72 -1.23,1.57 -4.95,12.78 5.93,13.53 4.69,0.32 7.58,-3.77 9.3,-7.23 0.62,-1.26 1.59,-3.1 1.85,-3.59 z"
         fill="url(#IconifyId17ecdb2904d178eab20890)"
         id="path49"
         style="fill:#0e0e0e;fill-opacity:1" /><radialGradient
         id="IconifyId17ecdb2904d178eab20891"
         cx="159.05499"
         cy="62.862"
         r="28.721001"
         gradientTransform="matrix(-0.9378,-0.3944,-0.2182,0.5285,231.04,50.678)"
         gradientUnits="userSpaceOnUse"><stop
           offset="0.699"
           stop-color="#6d4c41"
           stop-opacity="0"
           id="stop50"
           style="stop-color:#cc8913;stop-opacity:1;" /><stop
           offset="1"
           stop-color="#6d4c41"
           id="stop51"
           style="stop-color:#eeb248;stop-opacity:1;" /></radialGradient><path
         d="m 79.16,5.47 c 7.32,1.98 10.89,5.71 12.08,10.68 0.35,1.46 0.77,15.08 -25.23,-0.4 C 56.34,9.99 58.98,6.39 60.11,5.98 64.53,4.38 70.96,3.25 79.16,5.47 Z"
         fill="url(#IconifyId17ecdb2904d178eab20891)"
         id="path51"
         style="fill:#0e0e0e;fill-opacity:1" /><radialGradient
         id="IconifyId17ecdb2904d178eab20892"
         cx="43.528999"
         cy="115.276"
         r="8.5749998"
         gradientTransform="matrix(1,0,0,-1.2233,0,153.742)"
         gradientUnits="userSpaceOnUse"><stop
           offset="0.70200002"
           stop-color="#6d4c41"
           stop-opacity="0"
           id="stop52"
           style="stop-color:#eeb248;stop-opacity:1;" /><stop
           offset="1"
           stop-color="#6d4c41"
           id="stop53"
           style="stop-color:#eeb248;stop-opacity:1;" /></radialGradient><path
         d="M 39.84,4.68 C 39.83,4.69 39.81,4.69 39.78,4.71 H 39.77 C 38.84,5.1 31.53,8.49 34.26,16.96 l 7.78,1.25 C 35.15,11.23 39.87,4.66 39.87,4.66 c 0,0 -0.02,0.01 -0.03,0.02 z"
         fill="url(#IconifyId17ecdb2904d178eab20892)"
         id="path53"
         style="fill:#0e0e0e;fill-opacity:1" /><radialGradient
         id="IconifyId17ecdb2904d178eab20893"
         cx="42.348999"
         cy="100.139"
         r="16.083"
         gradientTransform="matrix(-0.9657,-0.2598,-0.2432,0.9037,107.598,-51.632)"
         gradientUnits="userSpaceOnUse"><stop
           offset="0.66000003"
           stop-color="#6d4c41"
           stop-opacity="0"
           id="stop54"
           style="stop-color:#eea148;stop-opacity:1;" /><stop
           offset="1"
           stop-color="#6d4c41"
           id="stop55"
           style="stop-color:#eeb248;stop-opacity:1;" /></radialGradient><path
         d="m 39.07,17.73 -4.81,-0.77 c -0.19,0 -0.83,0.06 -1.18,0.11 -2.71,0.38 -5.9,1.78 -7.63,5.36 -1.86,3.86 -1.81,7.17 -1.3,9.38 0.15,0.74 0.45,1.58 0.45,1.58 0,0 2.38,-2.26 8.05,-2.41 z"
         fill="url(#IconifyId17ecdb2904d178eab20893)"
         id="path55"
         style="fill:#0e0e0e;fill-opacity:1" /><radialGradient
         id="IconifyId17ecdb2904d178eab20894"
         cx="38.533001"
         cy="84.609001"
         r="16.886"
         gradientTransform="matrix(0.9907,0.1363,0.1915,-1.3921,-15.841,155.923)"
         gradientUnits="userSpaceOnUse"><stop
           offset="0.59799999"
           stop-color="#6d4c41"
           stop-opacity="0"
           id="stop56"
           style="stop-color:#eeb248;stop-opacity:1;" /><stop
           offset="1"
           stop-color="#6d4c41"
           id="stop57"
           style="stop-color:#eeb248;stop-opacity:1;" /></radialGradient><path
         d="m 24.37,33.58 c -2.37,2.1 -5.56,6.79 -3.21,12.61 1.77,4.39 8.09,6.29 8.09,6.29 0,0.02 1.26,0.4 1.91,0.4 l 1.48,-21.9 c -3.03,0 -5.94,0.91 -7.82,2.22 0.03,0.03 -0.46,0.35 -0.45,0.38 z"
         fill="url(#IconifyId17ecdb2904d178eab20894)"
         id="path57"
         style="fill:#0e0e0e;fill-opacity:1" /></g></g></svg>
