<?xml version="1.0" encoding="UTF-8" standalone="no"?>
<!-- Uploaded to: SVG Repo, www.svgrepo.com, Generator: SVG Repo Mixer Tools -->

<svg
   width="800px"
   height="800px"
   viewBox="0 0 32 32"
   version="1.1"
   id="svg6"
   sodipodi:docname="kartoza-timesheets.svg"
   xml:space="preserve"
   inkscape:version="1.3.2 (091e20ef0f, 2023-11-25)"
   xmlns:inkscape="http://www.inkscape.org/namespaces/inkscape"
   xmlns:sodipodi="http://sodipodi.sourceforge.net/DTD/sodipodi-0.dtd"
   xmlns="http://www.w3.org/2000/svg"
   xmlns:svg="http://www.w3.org/2000/svg"
   xmlns:rdf="http://www.w3.org/1999/02/22-rdf-syntax-ns#"
   xmlns:cc="http://creativecommons.org/ns#"
   xmlns:dc="http://purl.org/dc/elements/1.1/"><defs
     id="defs6" /><sodipodi:namedview
     id="namedview6"
     pagecolor="#ffffff"
     bordercolor="#000000"
     borderopacity="0.25"
     inkscape:showpageshadow="2"
     inkscape:pageopacity="0.0"
     inkscape:pagecheckerboard="0"
     inkscape:deskcolor="#d1d1d1"
     inkscape:zoom="0.9775"
     inkscape:cx="353.45269"
     inkscape:cy="400"
     inkscape:window-width="1920"
     inkscape:window-height="993"
     inkscape:window-x="1920"
     inkscape:window-y="0"
     inkscape:window-maximized="1"
     inkscape:current-layer="svg6" /><title
     id="title1">file_type_nix</title><g
     id="g11"
     transform="matrix(0.07274181,0,0,0.05654412,6.0770069,1.2587213)">
	<g
   id="g10">
		<g
   style="opacity:0.9"
   id="g2">
			<path
   style="fill:#ffffff"
   d="m 36.612,129.001 c 0,90.002 107.115,125.495 107.115,125.495 V 40.267 c -59.158,0 -107.115,29.576 -107.115,88.734 z"
   id="path1-5" />
			<path
   style="fill:#ffffff"
   d="m 250.842,129.001 c 0,90.002 -107.115,125.495 -107.115,125.495 V 40.267 c 59.158,0 107.115,29.576 107.115,88.734 z"
   id="path2-3" />
		</g>
		<g
   style="opacity:0.9"
   id="g4">
			<path
   style="fill:#ffffff"
   d="m 250.842,375.893 c 0,-90.002 -107.115,-125.496 -107.115,-125.496 v 214.23 c 59.158,10e-4 107.115,-29.576 107.115,-88.734 z"
   id="path3-5" />
			<path
   style="fill:#ffffff"
   d="m 36.612,375.893 c 0,-90.002 107.115,-125.496 107.115,-125.496 v 214.23 C 84.569,464.628 36.612,435.051 36.612,375.893 Z"
   id="path4-6" />
		</g>
		<path
   style="fill:#54a2cc;fill-opacity:1"
   d="m 221.127,80.514 h -154.8 c -11.095,0 -20.089,-8.994 -20.089,-20.089 v 0 c 0,-27.297 22.334,-49.631 49.631,-49.631 h 95.716 c 27.297,0 49.631,22.334 49.631,49.631 v 0 c 0,11.095 -8.994,20.089 -20.089,20.089 z"
   id="path5-2" />
		<path
   style="fill:#54a2cc;fill-opacity:1"
   d="m 66.327,429.768 h 154.8 c 11.095,0 20.089,8.994 20.089,20.089 v 0 c 0,27.297 -22.334,49.631 -49.631,49.631 H 95.869 c -27.297,0 -49.631,-22.334 -49.631,-49.631 v 0 c 0,-11.095 8.994,-20.089 20.089,-20.089 z"
   id="path6-9" />
		<g
   id="g7">
			<rect
   x="4.1339998"
   y="55.740002"
   style="fill:#ffffff"
   width="14.263"
   height="408.85599"
   id="rect6" />
			<rect
   x="269.08401"
   y="55.708"
   style="fill:#ffffff"
   width="14.221"
   height="408.91901"
   id="rect7" />
		</g>
		<path
   style="fill:#8a8b8b;fill-opacity:1"
   d="m 287.454,42.787 c 0,5.236 -1.516,10.128 -4.134,14.263 -1.033,1.722 -2.342,3.307 -3.79,4.754 -2.894,2.893 -6.477,5.168 -10.473,6.476 -2.687,0.965 -5.512,1.447 -8.544,1.447 H 26.94 c -0.344,0 -0.689,0 -1.034,-0.068 C 23.288,69.59 20.739,69.108 18.396,68.28 12.401,66.351 7.372,62.287 4.133,57.05 1.516,52.915 0,48.023 0,42.787 0,31.074 4.823,20.325 12.54,12.609 20.326,4.823 30.936,0 42.718,0 h 202.017 c 6.063,0 11.782,1.24 17.018,3.583 9.853,4.271 17.776,12.196 22.048,22.048 2.343,5.236 3.653,11.093 3.653,17.156 z"
   id="path7" />
		<path
   style="fill:#8a8b8b;fill-opacity:1"
   d="m 287.454,469.213 c 0,11.782 -4.823,22.462 -12.54,30.247 -7.786,7.717 -18.397,12.54 -30.179,12.54 H 42.718 C 40.1,512 37.481,511.725 35.001,511.242 17.707,508.142 3.927,494.362 0.758,476.999 0.276,474.449 0,471.9 0,469.213 c 0,-5.237 1.516,-10.198 4.134,-14.331 1.102,-1.723 2.342,-3.307 3.789,-4.755 2.894,-2.894 6.477,-5.099 10.473,-6.408 2.687,-0.964 5.512,-1.447 8.544,-1.447 h 233.573 c 3.032,0 5.857,0.483 8.544,1.447 5.995,1.929 11.024,5.926 14.263,11.163 2.618,4.133 4.134,9.095 4.134,14.331 z"
   id="path8" />
		<path
   style="fill:#eeb248;fill-opacity:1"
   d="m 231.518,163.861 c -2.184,5.476 -4.899,10.807 -8.148,15.975 -8.056,12.825 -19.395,24.779 -33.7,35.529 C 170.725,229.6 151.774,237.84 143.741,240.984 135.6,237.787 116.252,229.36 97.244,214.96 83.078,204.226 71.857,192.304 63.89,179.526 c -3.163,-5.07 -5.815,-10.299 -7.954,-15.665 z"
   id="path9" />
		<path
   style="fill:#eeb248;fill-opacity:1"
   d="m 73.805,423.865 c 1.691,-5.461 5.05,-10.678 10.044,-15.588 6.169,-6.065 14.852,-11.718 25.806,-16.801 14.507,-6.732 29.019,-10.629 35.17,-12.115 6.234,1.512 21.049,5.497 35.605,12.307 10.847,5.076 19.44,10.714 25.541,16.757 4.912,4.866 8.219,10.034 9.893,15.441 -22.597,1.015 -46.418,1.559 -71.03,1.559 -24.609,-0.001 -48.432,-0.545 -71.029,-1.56 z"
   id="path10" />
		<rect
   x="141.507"
   y="239.142"
   style="fill:#eeb248;fill-opacity:1"
   width="6.6550002"
   height="161.61501"
   id="rect10" />
	</g>
	<path
   style="opacity:0.07;fill:#040000"
   d="M 278.363,454.863 V 57.07 c 0.004,-0.007 0.01,-0.014 0.014,-0.02 2.618,-4.135 4.134,-9.026 4.134,-14.263 0,-6.063 -1.309,-11.92 -3.652,-17.156 C 274.587,15.779 266.664,7.854 256.811,3.583 251.575,1.24 245.856,0 239.793,0 H 138.785 v 512 h 101.008 c 11.782,0 22.393,-4.823 30.178,-12.539 7.717,-7.786 12.54,-18.466 12.54,-30.247 0,-5.237 -1.516,-10.198 -4.134,-14.331 -0.004,-0.008 -0.01,-0.013 -0.014,-0.02 z m -14.221,-11.132 c -0.01,-0.003 -0.018,-0.008 -0.027,-0.012 -2.687,-0.964 -5.512,-1.447 -8.544,-1.447 h -20.803 c -1.785,-4.369 -5.093,-7.899 -9.232,-10.095 12.757,-14.149 20.364,-32.859 20.364,-56.285 0,-77.743 -79.869,-114.789 -101.642,-123.447 21.773,-8.657 101.642,-45.703 101.642,-123.446 0,-21.552 -6.424,-39.13 -17.377,-52.83 2.221,-1.743 4.042,-3.928 5.368,-6.444 h 21.68 c 3.032,0 5.857,-0.482 8.544,-1.447 0.01,-0.003 0.018,-0.009 0.027,-0.013 z"
   id="path11" />
</g><metadata
     id="metadata11"><rdf:RDF><cc:Work
         rdf:about=""><dc:title>file_type_nix</dc:title></cc:Work></rdf:RDF></metadata></svg>
