<?xml version="1.0" encoding="UTF-8" standalone="no"?>
<!-- Uploaded to: SVG Repo, www.svgrepo.com, Generator: SVG Repo Mixer Tools -->

<svg
   width="800px"
   height="800px"
   viewBox="0 0 32 32"
   version="1.1"
   id="svg6"
   sodipodi:docname="kartoza-handbook.svg"
   xml:space="preserve"
   inkscape:version="1.3.2 (091e20ef0f, 2023-11-25)"
   xmlns:inkscape="http://www.inkscape.org/namespaces/inkscape"
   xmlns:sodipodi="http://sodipodi.sourceforge.net/DTD/sodipodi-0.dtd"
   xmlns="http://www.w3.org/2000/svg"
   xmlns:svg="http://www.w3.org/2000/svg"
   xmlns:rdf="http://www.w3.org/1999/02/22-rdf-syntax-ns#"
   xmlns:cc="http://creativecommons.org/ns#"
   xmlns:dc="http://purl.org/dc/elements/1.1/"><defs
     id="defs6" /><sodipodi:namedview
     id="namedview6"
     pagecolor="#ffffff"
     bordercolor="#000000"
     borderopacity="0.25"
     inkscape:showpageshadow="2"
     inkscape:pageopacity="0.0"
     inkscape:pagecheckerboard="0"
     inkscape:deskcolor="#d1d1d1"
     inkscape:zoom="0.244375"
     inkscape:cx="-59.335038"
     inkscape:cy="-53.196931"
     inkscape:window-width="1920"
     inkscape:window-height="993"
     inkscape:window-x="1920"
     inkscape:window-y="0"
     inkscape:window-maximized="1"
     inkscape:current-layer="svg6" /><title
     id="title1">file_type_nix</title><metadata
     id="metadata11"><rdf:RDF><cc:Work
         rdf:about=""><dc:title>file_type_nix</dc:title></cc:Work></rdf:RDF></metadata><style
     type="text/css"
     id="style1">
	.st0{fill:#76C2AF;}
	.st1{opacity:0.2;}
	.st2{fill:#231F20;}
	.st3{fill:#4F5D73;}
	.st4{fill:#FFFFFF;}
</style><g
     id="g13"
     transform="matrix(0.25518541,0,0,0.27486091,2.9235689,1.7084138)"><path
       fill-rule="evenodd"
       clip-rule="evenodd"
       fill="#c0392b"
       d="m 6,100 h 88 a 6,6 0 0 0 6,-6 V 6 A 6,6 0 0 0 94,0 H 6 A 6,6 0 0 0 0,6 v 88 a 6,6 0 0 0 6,6 z"
       id="path1-26"
       style="fill:#eeb248;fill-opacity:1" /><path
       fill-rule="evenodd"
       clip-rule="evenodd"
       fill="#e74c3c"
       d="M 100,30 H 99.975 A 5.5,5.5 0 0 0 94.5,25 H 6.25 C 2.937,25 0,22.314 0,19 V 6 A 6,6 0 0 1 6,0 h 88 c 3.313,0 6,2.687 6,6.001 z"
       id="path2-1"
       style="fill:#8a8b8b;fill-opacity:1" /><path
       opacity="0.15"
       fill-rule="evenodd"
       clip-rule="evenodd"
       d="M 5,100 H 7 V 0 H 5 Z"
       id="path3-8" /><path
       opacity="0.15"
       fill-rule="evenodd"
       clip-rule="evenodd"
       fill="#ffffff"
       d="M 7,100 H 9 V 0 H 7 Z"
       id="path4-7" /><path
       fill-rule="evenodd"
       clip-rule="evenodd"
       fill="#ffffff"
       d="m 100,10.001 a 5,5 0 0 0 -5,-5 H 7 a 2,2 0 0 0 -2,2 v 11 a 2,2 0 0 0 2,2 h 87 a 6,6 0 0 1 6,6 v -15 h -0.101 c 0.066,-0.323 0.101,-0.658 0.101,-1 z"
       id="path5-9" /><path
       fill-rule="evenodd"
       clip-rule="evenodd"
       fill="#95a5a6"
       d="m 100,15.423 v -3.921 c 0,0 0.183,-4 -5,-4 H 5 v 2 h 89 a 5.995,5.995 0 0 1 5.98,5.616 c -0.107,-1 -0.789,-3.615 -4.98,-3.615 H 5 v 2 h 89 a 5.995,5.995 0 0 1 5.98,5.616 C 99.873,18.118 99.191,15.503 95,15.503 H 5 v 2 h 89 a 6,6 0 0 1 6,6 z"
       opacity="0.2"
       id="path6-2" /><path
       fill-rule="evenodd"
       clip-rule="evenodd"
       fill="#2980b9"
       d="M 80,100 H 90 V 25 H 80 Z"
       id="path7-0" /><path
       fill-rule="evenodd"
       clip-rule="evenodd"
       fill="#3498db"
       d="M 80,25.007 H 90 V 0 H 80 Z"
       id="path8-2"
       style="fill:#54a2cc;fill-opacity:1" /><path
       fill-rule="evenodd"
       clip-rule="evenodd"
       d="m 82,100 h 2 V 0 H 82 Z M 86,0 V 72.528329 100 h 2 V 0 Z"
       opacity="0.1"
       id="path9-3"
       sodipodi:nodetypes="ccccccccccc" /></g></svg>
