<?xml version="1.0" encoding="UTF-8" standalone="no"?>
<!-- Uploaded to: SVG Repo, www.svgrepo.com, Generator: SVG Repo Mixer Tools -->

<svg
   width="800px"
   height="800px"
   viewBox="0 0 32 32"
   version="1.1"
   id="svg6"
   sodipodi:docname="nix-packages.svg"
   xml:space="preserve"
   inkscape:version="1.3.2 (091e20ef0f, 2023-11-25)"
   xmlns:inkscape="http://www.inkscape.org/namespaces/inkscape"
   xmlns:sodipodi="http://sodipodi.sourceforge.net/DTD/sodipodi-0.dtd"
   xmlns="http://www.w3.org/2000/svg"
   xmlns:svg="http://www.w3.org/2000/svg"
   xmlns:rdf="http://www.w3.org/1999/02/22-rdf-syntax-ns#"
   xmlns:cc="http://creativecommons.org/ns#"
   xmlns:dc="http://purl.org/dc/elements/1.1/"><defs
     id="defs6" /><sodipodi:namedview
     id="namedview6"
     pagecolor="#ffffff"
     bordercolor="#000000"
     borderopacity="0.25"
     inkscape:showpageshadow="2"
     inkscape:pageopacity="0.0"
     inkscape:pagecheckerboard="0"
     inkscape:deskcolor="#d1d1d1"
     inkscape:zoom="0.1221875"
     inkscape:cx="-1063.9386"
     inkscape:cy="-548.33759"
     inkscape:window-width="1920"
     inkscape:window-height="993"
     inkscape:window-x="1920"
     inkscape:window-y="0"
     inkscape:window-maximized="1"
     inkscape:current-layer="svg6"
     showgrid="false" /><title
     id="title1">file_type_nix</title><metadata
     id="metadata11"><rdf:RDF><cc:Work
         rdf:about=""><dc:title>file_type_nix</dc:title></cc:Work></rdf:RDF></metadata><style
     type="text/css"
     id="style1">
	.st0{fill:#76C2AF;}
	.st1{opacity:0.2;}
	.st2{fill:#231F20;}
	.st3{fill:#4F5D73;}
	.st4{fill:#FFFFFF;}
</style><g
     id="g8"
     transform="matrix(0.75987778,0,0,0.73375326,1.4233606,1.1970281)"><path
       d="M 13,11.115 6.183,23.76 4.59,20.87 6.429,17.483 2.778,17.473 2,16.029 2.8,14.552 8,14.57 9.868,11.123 Z"
       style="fill:#7ebae4;fill-rule:evenodd"
       id="path1" /><path
       d="m 13.527,21.223 h 13.64 l -1.541,2.922 -3.658,-0.011 1.817,3.389 -0.779,1.449 h -1.593 l -2.584,-4.825 -3.722,-0.008 z"
       style="fill:#7ebae4;fill-rule:evenodd"
       id="path2" /><path
       d="M 21.467,15.682 14.647,3.037 17.781,3.005 19.6,6.4 21.434,3.021 h 1.557 l 0.795,1.479 -2.612,4.807 1.854,3.455 z"
       style="fill:#7ebae4;fill-rule:evenodd"
       id="path3" /><path
       d="M 10.542,16.324 17.363,28.969 14.229,29 12.408,25.6 10.574,28.98 H 9.016 L 8.216,27.504 10.831,22.7 8.976,19.243 Z"
       style="fill:#5277c3;fill-rule:evenodd"
       id="path4" /><path
       d="M 18.464,10.751 H 4.823 L 6.365,7.829 10.023,7.84 8.207,4.451 8.986,3 h 1.592 l 2.584,4.825 3.722,0.008 z"
       style="fill:#5277c3;fill-rule:evenodd"
       id="path5" /><path
       d="m 19,20.888 6.817,-12.644 1.593,2.89 -1.839,3.386 3.651,0.01 0.778,1.449 -0.8,1.477 -5.2,-0.018 -1.868,3.447 z"
       style="fill:#5277c3;fill-rule:evenodd"
       id="path6" /></g><g
     id="g16"
     transform="matrix(0.5,0,0,0.5,0.69014627,0.42451091)"><path
       fill="#b0bdc6"
       d="m 39.024,42.778 3.819,-3.818 2.898,2.9 -3.818,3.817 z"
       id="path1-1" /><path
       fill="#dfe9ef"
       d="m 39.945,41.86 1.98,-1.98 2.9,2.897 -1.98,1.98 z"
       id="path2-94" /><path
       fill="#b0bdc6"
       d="m 38.955,42.773 3.818,-3.819 1.202,1.202 -3.818,3.82 z"
       id="path3-78" /><path
       d="m 41.5,8.8 c -9,-9 -23.7,-9 -32.8,0 -9.1,9 -9,23.7 0,32.8 9,9 23.7,9 32.8,0 9.1,-9.1 9.1,-23.8 0,-32.8 M 39.4,39.4 C 31.5,47.3 18.8,47.3 11,39.4 3.1,31.5 3.1,18.8 11,11 c 7.9,-7.9 20.6,-7.9 28.4,0 7.8,7.8 7.8,20.5 0,28.4"
       fill="#dfe9ef"
       id="path4-4" /><path
       d="m 39.9,10.4 c -8.1,-8.1 -21.3,-8.1 -29.5,0 -8.1,8.1 -8.1,21.3 0,29.5 8.1,8.1 21.3,8.1 29.5,0 8.1,-8.1 8.1,-21.3 0,-29.5 M 38.8,38.8 C 31.3,46.3 19,46.3 11.5,38.8 4,31.3 4,19 11.5,11.5 19,4 31.3,4 38.8,11.5 c 7.5,7.5 7.5,19.8 0,27.3"
       fill="#b0bdc6"
       id="path5-5" /><path
       fill="#333333"
       d="m 39.88,46.795 6.93,-6.93 13.79,13.789 -6.93,6.93 z"
       id="path7-6" /><path
       fill="#575b5e"
       d="m 41.437,45.24 3.817,-3.82 13.79,13.787 -3.817,3.819 z"
       id="path8-1" /><path
       d="m 61.9,52.9 c 1.1,1.1 -7.8,10.1 -9,9 l -0.7,-0.7 c -1.1,-1.1 7.8,-10.1 9,-9 l 0.7,0.7"
       fill="#b0bdc6"
       id="path9-0" /><path
       d="m 60.4,54.4 c 1.1,1.1 -4.8,7.1 -6,6 l -0.7,-0.7 c -1.1,-1.1 4.8,-7.1 6,-6 l 0.7,0.7"
       fill="#dfe9ef"
       id="path10-6" /></g></svg>
