<?xml version="1.0" encoding="UTF-8" standalone="no"?>
<svg
   version="1.1"
   x="0"
   y="0"
   width="500"
   height="500"
   viewBox="0, 0, 500, 500"
   id="svg3"
   sodipodi:docname="KartozaHandbook.svg"
   xml:space="preserve"
   inkscape:version="1.3.2 (091e20ef0f, 2023-11-25)"
   xmlns:inkscape="http://www.inkscape.org/namespaces/inkscape"
   xmlns:sodipodi="http://sodipodi.sourceforge.net/DTD/sodipodi-0.dtd"
   xmlns="http://www.w3.org/2000/svg"
   xmlns:svg="http://www.w3.org/2000/svg"><defs
     id="defs3" /><sodipodi:namedview
     id="namedview3"
     pagecolor="#ffffff"
     bordercolor="#000000"
     borderopacity="0.25"
     inkscape:showpageshadow="2"
     inkscape:pageopacity="0.0"
     inkscape:pagecheckerboard="0"
     inkscape:deskcolor="#d1d1d1"
     inkscape:zoom="1.564"
     inkscape:cx="250"
     inkscape:cy="264.70588"
     inkscape:window-width="1920"
     inkscape:window-height="993"
     inkscape:window-x="0"
     inkscape:window-y="0"
     inkscape:window-maximized="1"
     inkscape:current-layer="svg3" /><g
     id="g3"
     transform="matrix(0.40062084,0,0,0.43966106,40.568535,23.336029)"><path
       d="m 149.6,123.2 c 0,49.6 40,89.6 89.6,89.6 H 829.6 C 823.2,201.6 816.8,187.2 812,169.6 H 492 v -32 h 315.2 c 0,-11.2 0,-20.8 1.6,-32 H 372 v -32 H 816.8 C 820,60.8 826.4,46.4 832.8,32 H 239.2 c -49.6,0 -89.6,41.6 -89.6,91.2 z"
       fill="#ffffff"
       id="path1-7" /><path
       d="m 239.2,244.8 c -8,0 -17.6,-1.6 -25.6,-3.2 -25.6,-4.8 -48,-19.2 -64,-36.8 v 657.6 c 0,48 11.2,83.2 35.2,105.6 27.2,25.6 64,24 64,24 h 624 V 244.8 Z"
       fill="#ffffff"
       id="path2-5" /><path
       d="M 906.4,32 V 0 H 239.2 C 172,0 117.6,54.4 117.6,121.6 v 740.8 c 0,57.6 16,100.8 46.4,129.6 32,30.4 70.4,32 83.2,32 H 906.4 V 212.8 h -36.8 c -8,-8 -62.4,-68.8 0,-180.8 z M 816.8,73.6 H 372 v 32 h 436.8 c -1.6,11.2 -1.6,20.8 -1.6,32 H 492 v 32 h 320 c 4.8,17.6 11.2,32 17.6,43.2 H 239.2 c -49.6,0 -89.6,-40 -89.6,-89.6 0,-49.6 40,-91.2 89.6,-91.2 h 593.6 c -6.4,14.4 -12.8,28.8 -16,41.6 z m 56,918.4 h -624 c 0,0 -36.8,1.6 -64,-24 -24,-22.4 -35.2,-57.6 -35.2,-105.6 V 204.8 c 16,17.6 38.4,32 64,36.8 8,1.6 17.6,3.2 25.6,3.2 h 633.6 z"
       fill=""
       id="path3-3" /><path
       d="M 808.8,928 V 244.8 H 239.2 c -9.6,0 -17.6,-1.6 -25.6,-3.2 V 928 Z"
       fill="#fad97f"
       id="path4" /></g><g
     id="Image"
     transform="matrix(0.47679633,0,0,0.5098876,127.55046,145.04663)"><path
       d="m 296.244,207.294 c 5.452,-21.967 8.499,-43.542 6.768,-59.765 -4.394,-41.187 -35.506,-50.625 -53.446,-50.614 -18.676,0.011 -45.396,6.916 -53.085,50.478 -6.646,37.665 12.51,90.626 40.866,139.804 0,0 -3.157,7.275 -11.395,18.945 -11.929,16.898 -21.518,26.187 -21.518,26.187 C 167.723,269.003 138.895,213.624 139.184,172.614 139.929,67.179 199.042,37.52 249.565,37.842 c 50.523,0.322 110.93,33.707 110.93,133.852 0,10.745 -3.877,29.011 -6.59,41.093 -3.865,-0.312 -14.338,-2.091 -25.673,-3.157 -17.524,-1.653 -31.988,-2.336 -31.988,-2.336 z"
       fill="#54a2cc"
       id="path1" /><path
       d="m 156.908,283.159 c -21.75,6.262 -41.957,14.411 -55.141,24.021 -33.473,24.398 -26.09,56.063 -17.11,71.594 9.348,16.168 28.688,35.855 70.258,20.732 35.942,-13.075 72.229,-56.146 100.64,-105.292 0,0 7.88,-0.903 22.105,0.396 20.598,1.88 33.437,5.543 33.437,5.543 C 274.611,363.606 241.065,416.262 205.405,436.517 113.723,488.589 58.481,452.225 33.498,408.31 8.517,364.395 7.226,295.389 93.953,245.316 c 9.305,-5.372 27.063,-11.146 38.882,-14.838 1.661,3.503 5.358,13.46 10.102,23.812 7.331,16.002 13.971,28.869 13.971,28.869 z"
       fill="#eeb248"
       id="path2" /><path
       d="m 295.434,363.963 c 16.297,15.706 33.459,29.131 48.374,35.743 37.866,16.789 61.597,-5.438 70.557,-20.979 9.328,-16.178 16.708,-42.772 -17.173,-71.21 -29.297,-24.59 -84.74,-34.481 -141.507,-34.511 0,0 -4.721,-6.374 -10.708,-19.341 -8.672,-18.779 -11.921,-31.729 -11.921,-31.729 73.196,-0.129 135.571,2.594 170.942,23.35 90.938,53.362 87.065,119.386 61.525,162.979 -25.538,43.591 -84.656,79.213 -171.385,29.142 -9.304,-5.374 -23.184,-17.864 -32.291,-26.255 2.203,-3.19 8.979,-11.37 15.571,-20.653 10.194,-14.352 18.016,-26.536 18.016,-26.536 z"
       fill="#8a8b8b"
       id="path3" /></g></svg>
